<?xml version="1.0" encoding="UTF-8" standalone="no"?>
<!DOCTYPE svg PUBLIC "-//W3C//DTD SVG 1.1//EN" "http://www.w3.org/Graphics/SVG/1.1/DTD/svg11.dtd">
<svg width="100%" height="100%" viewBox="0 0 880 187" version="1.1" xmlns="http://www.w3.org/2000/svg" xmlns:xlink="http://www.w3.org/1999/xlink" xml:space="preserve" xmlns:serif="http://www.serif.com/" style="fill-rule:evenodd;clip-rule:evenodd;">
    <g id="Layer-1" serif:id="Layer 1" transform="matrix(1,0,0,1,-32.1798,-629.325)">
        <g id="Hummingbird" transform="matrix(0.197725,0,0,0.184434,545.412,632.054)">
            <g id="g1892">
                <clipPath id="_clip1">
                    <rect x="807.874" y="25.512" width="302.211" height="70.866"/>
                </clipPath>
                <g clip-path="url(#_clip1)">
                    <path id="path1890" d="M1110.09,26.575L1055.75,95.094L809.612,49.252L1110.09,26.575Z" style="fill:rgb(115,207,202);fill-rule:nonzero;stroke:rgb(115,207,202);stroke-width:0.59px;"/>
                </g>
            </g>
            <path id="path1894" d="M1055.75,95.082L1035.42,105.945L809.624,49.252L1055.75,95.082Z" style="fill:rgb(66,158,171);fill-rule:nonzero;stroke:rgb(66,158,171);stroke-width:0.59px;"/>
            <path id="path1896" d="M940.006,217.913L897.486,310.039L668.334,293.962L651.393,260.942L700.933,220.748L730.42,174.231L940.006,217.913Z" style="fill:rgb(115,207,202);fill-rule:nonzero;stroke:rgb(115,207,202);stroke-width:0.59px;"/>
            <path id="path1898" d="M897.486,310.039L869.14,359.646L668.334,293.962L897.486,310.039Z" style="fill:rgb(66,158,171);fill-rule:nonzero;stroke:rgb(66,158,171);stroke-width:0.59px;"/>
            <path id="path1900" d="M869.14,359.646L814.806,532.072L696.116,556.964L696.116,556.941L651.393,433.8L654.017,401.235L654.017,401.202L668.334,293.961L869.14,359.646Z" style="fill:rgb(69,191,186);fill-rule:nonzero;stroke:rgb(69,191,186);stroke-width:0.59px;"/>
            <g id="g1904">
                <clipPath id="_clip2">
                    <rect x="651.968" y="796.535" width="204.094" height="185.116"/>
                </clipPath>
                <g clip-path="url(#_clip2)">
                    <path id="path1902" d="M848.821,952.541L854.491,970.966L820.253,981.651L747.992,899.734L734.948,975.218L654.305,921.869L703.767,926.575L713.688,873.658L711.961,858.887L704.908,798.307L707.709,800.466L758.6,872.24L848.821,952.541Z" style="fill:rgb(81,115,148);fill-rule:nonzero;stroke:rgb(81,115,148);stroke-width:0.59px;"/>
                </g>
            </g>
            <path id="path1906" d="M791.641,819.799L848.821,952.541L758.6,872.24L649.433,457.806L649.433,457.784L651.393,433.8L696.116,556.941L696.116,556.964L791.641,819.799Z" style="fill:rgb(115,207,202);fill-rule:nonzero;stroke:rgb(115,207,202);stroke-width:0.59px;"/>
            <path id="path1908" d="M730.42,174.231L964.101,209.409L940.006,217.913L730.42,174.231Z" style="fill:rgb(66,158,171);fill-rule:nonzero;stroke:rgb(66,158,171);stroke-width:0.59px;"/>
            <path id="path1910" d="M1035.42,105.945L964.112,209.409L730.42,174.231L809.624,49.252L1035.42,105.945Z" style="fill:rgb(69,191,186);fill-rule:nonzero;stroke:rgb(69,191,186);stroke-width:0.59px;"/>
            <path id="path1912" d="M649.433,457.806L758.6,872.229L707.709,800.466L704.908,798.307L652.522,758.478L652.522,758.455L440.289,597.013L440.012,595.829L640.962,562.068L649.433,457.806Z" style="fill:rgb(74,156,174);fill-rule:nonzero;stroke:rgb(74,156,174);stroke-width:0.59px;"/>
            <path id="path1914" d="M809.612,49.252L730.42,174.231L700.933,220.748L651.393,260.942L575.898,322.142L555.469,301.447L630.775,205.069L744.681,105.834L809.612,49.252Z" style="fill:rgb(56,97,125);fill-rule:nonzero;stroke:rgb(56,97,125);stroke-width:0.59px;"/>
            <path id="path1916" d="M711.961,858.887L713.688,873.658L703.767,926.575L654.305,921.869L673.472,846.806L676.384,835.39L652.522,758.478L704.908,798.307L711.961,858.887Z" style="fill:rgb(56,97,125);fill-rule:nonzero;stroke:rgb(56,97,125);stroke-width:0.59px;"/>
            <path id="path1918" d="M744.681,105.834L630.775,205.069L555.469,301.447L514.621,260.09L658.9,96.954L744.681,105.834Z" style="fill:rgb(74,156,174);fill-rule:nonzero;stroke:rgb(74,156,174);stroke-width:0.59px;"/>
            <path id="path1920" d="M651.382,260.942L668.334,293.962L654.028,401.202L575.898,322.142L651.382,260.942Z" style="fill:rgb(66,158,171);fill-rule:nonzero;stroke:rgb(66,158,171);stroke-width:0.59px;"/>
            <g id="g1924">
                <clipPath id="_clip3">
                    <rect x="0.775" y="0.576" width="654.028" height="401.944"/>
                </clipPath>
                <g clip-path="url(#_clip3)">
                    <path id="path1922" d="M654.017,401.202L654.017,401.225L490.715,345.949L485.643,343.856L409.451,312.387L401.313,297.738L371.184,243.425L297.173,174.796L322.507,139.961L265.648,148.609L0.775,0.576L270.299,119.243L373.531,117.283L514.61,260.09L555.458,301.447L575.898,322.142L654.017,401.202Z" style="fill:rgb(69,191,186);fill-rule:nonzero;stroke:rgb(69,191,186);stroke-width:0.59px;"/>
                </g>
            </g>
            <path id="path1926" d="M654.017,401.224L651.382,433.8L649.433,457.784L649.433,457.807L640.962,562.069L440.001,595.83L400.46,427.678L485.643,343.856L490.715,345.949L654.017,401.224Z" style="fill:rgb(81,184,186);fill-rule:nonzero;stroke:rgb(81,184,186);stroke-width:0.59px;"/>
            <path id="path1928" d="M485.643,343.856L400.46,427.677L389.376,288.89L401.313,297.737L409.451,312.387L485.643,343.856Z" style="fill:rgb(74,156,174);fill-rule:nonzero;stroke:rgb(74,156,174);stroke-width:0.59px;"/>
            <path id="path1930" d="M440.012,595.829L440.289,597.014L374.494,423.901L362.425,312.11L273.134,202.633L389.376,288.868L389.376,288.891L400.46,427.678L440.012,595.829Z" style="fill:rgb(238,35,99);fill-rule:nonzero;stroke:rgb(238,35,99);stroke-width:0.59px;"/>
            <g id="g1934">
                <clipPath id="_clip4">
                    <rect x="0.775" y="0.576" width="401.745" height="299.897"/>
                </clipPath>
                <g clip-path="url(#_clip4)">
                    <path id="path1932" d="M371.184,243.425L401.313,297.737L389.376,288.89L389.376,288.868L273.134,202.633L273.1,202.611L0.775,0.576L265.648,148.609L273.864,153.204L297.173,174.796L371.184,243.425Z" style="fill:rgb(56,97,125);fill-rule:nonzero;stroke:rgb(56,97,125);stroke-width:0.59px;"/>
                </g>
            </g>
            <path id="path1936" d="M265.648,148.609L322.507,139.961L297.173,174.796L273.864,153.193L265.648,148.609Z" style="fill:rgb(81,115,148);fill-rule:nonzero;stroke:rgb(81,115,148);stroke-width:0.59px;"/>
        </g>
        <g id="XKCP" transform="matrix(0.352778,0,0,0.352778,-122.532,238.553)">
            <g id="X">
                <path id="path253" d="M453.776,1586.12L600.02,1389.09" style="fill:none;fill-rule:nonzero;stroke:rgb(35,89,120);stroke-width:14.17px;stroke-linecap:round;stroke-miterlimit:10;"/>
                <g id="path257" transform="matrix(1,0,0,-1,625.88,1353.04)">
                    <path d="M6.953,3.792L150.669,203.995" style="fill:none;fill-rule:nonzero;stroke:rgb(35,89,120);stroke-width:14.17px;stroke-linecap:round;stroke-miterlimit:10;"/>
                </g>
                <g id="path259" transform="matrix(1,0,0,-1,453.774,1149.05)">
                    <path d="M0.002,0.003C107.556,-145.713 215.167,-291.387 322.775,-437.064M286.611,-437.363L322.775,-437.363M0.002,0.003L30.939,0.003" style="fill:none;fill-rule:nonzero;stroke:rgb(35,89,120);stroke-width:14.17px;stroke-linecap:round;stroke-miterlimit:10;"/>
                </g>
            </g>
            <g id="P">
                <g id="path283" transform="matrix(1,0,0,-1,1646.02,1586.12)">
                    <path d="M-0,0.005L-36.419,0.005M-36.419,0.005L-36.308,190.801" style="fill:none;fill-rule:nonzero;stroke:rgb(35,89,120);stroke-width:14.17px;stroke-linecap:round;stroke-miterlimit:10;"/>
                </g>
                <g id="path285" transform="matrix(1,0,0,-1,1932.38,1246.09)">
                    <path d="M0,0C-0.066,0.853 -0.177,1.728 -0.288,2.613C-1.052,8.803 -2.624,15.314 -5.315,21.869C-5.348,21.935 -5.381,22.046 -5.426,22.124C-11.062,35.788 -20.64,47.237 -33.019,56.771C-33.086,56.804 -33.13,56.881 -33.196,56.915C-71.996,86.811 -138.178,98.183 -197.517,102.014L-322.762,102.014L-322.762,-119.575L-301.513,-119.575C-283.453,-119.764 -253.025,-119.83 -206.287,-119.764L-206.143,-119.764C-192.313,-119.022 -178.007,-117.926 -163.69,-116.231C-163.623,-116.231 -163.512,-116.231 -163.435,-116.187C-162.018,-116.043 -160.678,-115.899 -159.261,-115.711C-159.15,-115.711 -159.072,-115.678 -158.962,-115.678C-91.661,-107.285 -24.903,-86.744 -5.426,-39.098C-4.662,-37.26 -4.008,-35.411 -3.455,-33.606C-3.421,-33.539 -3.388,-33.462 -3.388,-33.396C-3.244,-32.908 -3.1,-32.399 -2.945,-31.845C-1.606,-27.35 -0.764,-23.009 -0.288,-18.779L-0.288,-17.927C-0.177,-17.052 -0.066,-16.089 0,-15.136C0.033,-14.727 0.066,-14.328 0.111,-13.874C0.111,-13.619 0.111,-13.365 0.144,-13.066C0.399,-8.98 0.365,-4.606 0,0Z" style="fill:none;fill-rule:nonzero;stroke:rgb(35,89,120);stroke-width:14.17px;stroke-miterlimit:10;"/>
                </g>
            </g>
            <g id="K">
                <g id="path291" transform="matrix(1,0,0,-1,839.699,1430.58)">
                    <path d="M-0.002,9.491L-0.002,-154.898" style="fill:none;fill-rule:nonzero;stroke:rgb(238,35,99);stroke-width:14.17px;stroke-linecap:round;stroke-miterlimit:10;"/>
                </g>
                <g id="path295" transform="matrix(1,0,0,-1,1161.51,1149.71)">
                    <path d="M-0.003,-0.006L-321.813,-244.405M-321.813,-0.006L-321.813,-244.405M-321.813,-0.006L-280.998,-0.006" style="fill:none;fill-rule:nonzero;stroke:rgb(238,35,99);stroke-width:14.17px;stroke-linecap:round;stroke-miterlimit:10;"/>
                </g>
                <g id="path301" transform="matrix(1,0,0,-1,1161.51,1586.81)">
                    <path d="M-0.003,1.334L-0.003,36.158M-0.003,1.334L-247.403,213.203" style="fill:none;fill-rule:nonzero;stroke:rgb(238,35,99);stroke-width:14.17px;stroke-linecap:round;stroke-miterlimit:10;"/>
                </g>
            </g>
            <g id="C">
                <g transform="matrix(1,0,0,-1,1546.64,1586.87)">
                    <g id="g309">
                        <path id="path307" d="M-0,-0.003L-116.143,-0.003C-120.694,0.174 -125.322,0.374 -129.907,0.706C-164.299,3.009 -199.389,10.339 -236.128,32.396C-250.268,40.878 -263.478,51.198 -275.016,63.721C-294.748,85.125 -309.685,113.184 -316.462,150.123C-316.694,151.086 -316.805,152.071 -316.971,153.068C-317.082,153.699 -317.192,154.264 -317.281,154.884C-317.403,155.338 -317.447,155.881 -317.48,156.357C-317.536,156.445 -317.569,156.611 -317.569,156.7C-317.79,158.029 -317.967,159.368 -318.133,160.664C-318.443,162.679 -318.61,164.606 -318.864,166.588C-319.407,171.072 -320.005,176.398 -320.514,182.5C-320.769,185.7 -321.023,189.132 -321.245,192.698C-321.311,193.971 -321.4,195.256 -321.444,196.551C-321.533,197.858 -321.588,199.131 -321.654,200.493C-321.699,201.8 -321.765,203.162 -321.787,204.546" style="fill:none;fill-rule:nonzero;stroke:rgb(35,89,120);stroke-width:14.17px;stroke-linecap:round;stroke-miterlimit:10;"/>
                    </g>
                </g>
                <g id="path311" transform="matrix(1,0,0,-1,1546.46,1175.74)">
                    <path d="M0.003,-0.003L0.003,31.666M0.003,31.666L-116.14,31.666C-120.702,31.5 -125.32,31.3 -129.915,30.957C-164.296,28.665 -199.386,21.324 -236.125,-0.733C-250.265,-9.215 -263.475,-19.524 -275.024,-32.059C-294.745,-53.451 -309.682,-81.521 -316.459,-118.46C-316.691,-119.423 -316.802,-120.409 -316.968,-121.405C-317.079,-122.025 -317.201,-122.601 -317.289,-123.221C-317.4,-123.675 -317.455,-124.207 -317.477,-124.694C-317.544,-124.771 -317.566,-124.949 -317.566,-125.026C-317.787,-126.366 -317.965,-127.695 -318.131,-129.001C-318.441,-131.016 -318.618,-132.943 -318.872,-134.925C-319.415,-139.41 -320.002,-144.736 -320.511,-150.826C-320.766,-154.037 -321.021,-157.458 -321.253,-161.035C-321.308,-162.308 -321.397,-163.582 -321.452,-164.888C-321.541,-166.195 -321.585,-167.468 -321.652,-168.83C-321.707,-170.126 -321.763,-171.499 -321.796,-172.883L-321.796,-172.551L-321.796,-176.371" style="fill:none;fill-rule:nonzero;stroke:rgb(35,89,120);stroke-width:14.17px;stroke-linecap:round;stroke-miterlimit:10;"/>
                </g>
            </g>
        </g>
        <g transform="matrix(0.457668,0,0,0.457668,729.101,631.364)">
            <path d="M212,13C120.304,13 44.112,79.356 28.807,166.667C46.433,166.681 60.717,180.973 60.717,198.602C60.717,216.239 46.42,230.537 28.782,230.537C28.746,230.537 28.712,230.534 28.675,230.534C43.655,318.238 120.025,385 212,385C314.725,385 398,301.725 398,199C398,96.275 314.725,13 212,13" style="fill:rgb(104,33,122);fill-rule:nonzero;"/>
        </g>
        <g transform="matrix(0.457668,0,0,0.457668,729.101,640.271)">
            <path d="M152.052,220.588L132.914,220.588L98.218,167.693C96.183,164.601 94.774,162.273 93.991,160.707L93.758,160.707C94.071,163.837 94.228,168.377 94.228,174.327L94.228,220.587L76.32,220.587L76.32,136.403L96.75,136.403L130.155,187.653L134.381,194.523L134.617,194.523C134.304,192.487 134.147,188.633 134.147,182.957L134.147,136.403L152.053,136.403L152.052,220.588ZM221.795,220.588L171.308,220.588L171.308,136.403L219.858,136.403L219.858,151.843L190.27,151.843L190.27,170.57L217.803,170.57L217.803,185.95L190.27,185.95L190.27,205.207L221.795,205.207L221.795,220.588ZM294.415,151.843L270.405,151.843L270.405,220.588L251.383,220.588L251.383,151.843L227.49,151.843L227.49,136.403L294.415,136.403L294.415,151.843Z" style="fill:white;fill-rule:nonzero;"/>
        </g>
        <g transform="matrix(0.457668,0,0,0.457668,729.101,631.364)">
            <path d="M51.282,199.167C51.282,212.147 40.762,222.667 27.782,222.667C14.802,222.667 4.282,212.147 4.282,199.167C4.282,186.187 14.802,175.667 27.782,175.667C40.762,175.667 51.282,186.187 51.282,199.167" style="fill:rgb(207,24,253);fill-rule:nonzero;"/>
        </g>
    </g>
</svg>
